<svg width="459" height="324" viewBox="0 0 459 324" fill="none" xmlns="http://www.w3.org/2000/svg">
<path fill-rule="evenodd" clip-rule="evenodd" d="M7.49775 284.639C5.41782 285.81 2.85991 289.144 2.43626 291.237C1.81402 294.309 2.65265 296.583 5.90174 300.635C7.62466 302.783 9.26085 305.39 9.53705 306.429C10.1748 308.823 9.5092 311.31 8.23093 311.31C7.14577 311.31 5.61459 309.013 5.22152 306.796C4.80745 304.459 3.93868 303.709 2.62343 304.553C-0.527501 306.575 -0.824242 308.632 1.64784 311.322C5.63832 315.665 10.0634 315.845 13.0409 311.788C15.4093 308.561 16.1384 304.295 14.8437 301.238C14.4881 300.398 13.3413 298.692 12.2954 297.447C11.2495 296.202 10.1027 294.496 9.74705 293.656C8.54182 290.81 9.19968 286.979 10.8929 286.979C11.9877 286.979 12.3935 288.174 12.7172 292.354L12.9802 295.749L14.6652 293.717C17.5632 290.223 17.5249 286.408 14.573 284.575C12.5323 283.307 9.81918 283.332 7.49775 284.639ZM118.18 284.864C116.144 286.566 114.516 289.587 112.315 295.749C109.153 304.602 108.318 310.586 109.905 313.015C110.705 314.24 110.777 314.25 112.205 313.335C113.017 312.815 114.873 310.873 116.331 309.021C117.79 307.167 119.078 305.652 119.193 305.652C119.309 305.652 119.419 306.885 119.438 308.393C119.499 313.406 121.072 315.007 124.213 313.252C125.571 312.493 125.924 312.031 125.663 311.355C125.474 310.864 125.279 307.788 125.231 304.52C125.182 301.252 125.123 298.26 125.1 297.871C125.047 296.991 123.499 296.954 122.174 297.801C121.625 298.151 119.963 299.731 118.48 301.312L115.784 304.185L116.111 301.099C116.738 295.165 119.833 285.281 121.064 285.281C121.807 285.281 121.124 290.512 119.883 294.32C118.581 298.315 119.004 298.649 121.72 295.768C125.62 291.63 126.165 286.385 122.919 284.242C121.408 283.245 119.878 283.446 118.18 284.864ZM161.69 284.426C158.697 285.466 157.341 286.549 156.54 288.539C156.197 289.392 155.823 290.322 155.709 290.603C155.593 290.892 156.23 290.97 157.168 290.781L158.833 290.446L158.214 291.966C157.428 293.897 154.998 303.138 154.047 307.813C153.052 312.709 153.489 314.018 155.987 313.616C156.768 313.49 156.705 314.415 155.872 315.271C153.475 317.737 158.266 320.235 162.949 318.96C167.063 317.84 173.658 312.312 174.971 308.88C176.658 304.474 175.141 300.537 171.293 299.337L169.226 298.692L170.978 297.635C176.501 294.306 177.598 287.746 173.091 285.008C170.813 283.624 164.872 283.321 161.69 284.426ZM241.699 284.375C238.608 285.317 237.474 286.159 236.426 288.288C235.223 290.733 235.303 291.139 236.906 290.742C238.448 290.359 238.587 290.815 237.629 293.11C236.667 295.417 233.253 309.736 233.253 311.467C233.253 313.121 234.562 314.35 235.731 313.794C236.644 313.36 236.665 314.344 235.764 315.271C234.219 316.861 235.27 318.427 238.365 319.144C244.858 320.648 255.623 311.794 255.623 304.95C255.623 302.726 253.678 300.257 251.266 299.42L249.167 298.692L251.353 297.22C255.596 294.366 256.984 289.065 254.239 286.202C253.478 285.408 252.091 284.496 251.158 284.174C248.937 283.41 244.563 283.503 241.699 284.375ZM352.471 285.025C350.598 287.976 350.828 291.505 352.893 291.505C354.596 291.505 356.297 286.151 355.141 284.426C354.323 283.205 353.51 283.387 352.471 285.025ZM103.125 285.423C102.138 286.248 101.271 287.713 100.661 289.587C100.143 291.177 99.052 293.172 98.2362 294.022C96.6685 295.654 96.3197 297.372 97.4021 298.126C97.9568 298.512 97.9216 299.243 97.1629 303.105C96.1111 308.458 96.3279 310.813 98.0248 312.471C99.5638 313.975 101.947 313.72 104.008 311.832C105.625 310.35 105.811 309.612 104.569 309.612C103.047 309.612 102.451 307.998 102.57 304.195C102.709 299.746 103.302 297.73 104.469 297.73C105.444 297.73 107.375 295.078 107.115 294.098C107.026 293.761 106.507 293.404 105.961 293.305C104.721 293.079 104.695 291.847 105.852 288.207C106.51 286.14 106.603 285.268 106.218 284.791C105.468 283.862 104.838 283.991 103.125 285.423ZM217.675 285.002C216.579 285.739 215.136 288.735 214.336 291.93C214.161 292.63 213.721 293.203 213.357 293.203C212.994 293.203 212.295 294.02 211.805 295.019C210.987 296.686 210.974 296.916 211.643 297.832C212.309 298.744 212.308 299.139 211.627 302.498C210.708 307.033 210.69 309.203 211.552 311.269C212.673 313.957 215.258 314.388 217.743 312.3C219.577 310.76 219.985 309.612 218.699 309.612C217.209 309.612 216.667 307.622 216.988 303.338C217.355 298.443 217.598 297.73 218.896 297.73C220.047 297.73 221.384 295.837 221.384 294.208C221.384 293.591 221.042 293.203 220.498 293.203C219.122 293.203 219.042 292.462 220.031 288.9C220.535 287.083 220.846 285.271 220.724 284.873C220.433 283.934 219.181 283.987 217.675 285.002ZM384.546 286.073C381.829 289.44 382.854 291.109 387.288 290.542L389.91 290.207L389.153 292.412C386.348 300.582 384.371 308.201 384.273 311.219C384.174 314.298 386.073 315.02 388.794 312.936C389.657 312.274 390.574 311.064 390.83 310.248C391.649 307.638 394.893 291.332 394.719 290.7C394.628 290.365 395.287 289.829 396.185 289.509C397.328 289.102 397.948 288.468 398.252 287.398C398.49 286.557 398.552 285.704 398.39 285.503C397.817 284.792 394.129 284.199 390.138 284.174C386.141 284.149 386.081 284.17 384.546 286.073ZM164.392 291.93C162.545 299.535 162.568 299.719 165.186 298.042C167.315 296.677 169.34 293.399 169.34 291.316C169.34 288.988 168.64 288.11 166.782 288.11C165.373 288.11 165.286 288.249 164.392 291.93ZM244.995 288.535C244.512 289.66 242.737 298.356 242.939 298.607C243.321 299.08 245.733 297.74 246.878 296.419C249.109 293.845 249.82 290.618 248.515 288.999C247.782 288.092 245.324 287.767 244.995 288.535ZM62.6546 293.172C57.978 295.804 54.4239 302.218 54.8777 307.208C55.1626 310.338 56.492 312.127 59.4334 313.338C62.1273 314.447 64.494 314.174 67.1993 312.44C69.7244 310.822 70.6534 309.756 71.6377 307.349C73.4528 302.909 73.0319 298.053 70.6406 295.856C69.4454 294.757 69.3473 294.753 67.3308 295.708C65.0664 296.78 64.8624 297.19 66.0078 298.368C67.9896 300.404 68.5411 305.377 67.108 308.289C64.5716 313.445 60.1159 309.695 60.8532 303.025C61.3837 298.228 64.1621 293.998 67.1756 293.401C68.1265 293.213 68.9045 292.836 68.9045 292.565C68.9045 291.662 64.5953 292.08 62.6546 293.172ZM404.678 293.406C402.129 294.884 398.786 299.054 397.796 301.989C397.438 303.05 397.146 305.097 397.146 306.539C397.146 308.749 397.382 309.452 398.651 311.025C401.462 314.51 405.224 314.983 409.425 312.382C413.161 310.067 414.625 307.429 414.843 302.615C415.122 296.436 412.732 293.682 409.088 295.986L407.229 297.162L408.316 298.508C410.043 300.65 410.696 304.129 409.9 306.96C408.729 311.125 405.235 312.004 403.774 308.501C401.544 303.157 404.871 294.332 409.457 293.423C410.46 293.224 411.17 292.839 411.035 292.566C410.56 291.615 406.943 292.093 404.678 293.406ZM40.268 294.169C38.8017 296.944 39.7366 310.637 41.5801 313.391C42.5794 314.883 44.085 314.185 46.395 311.157C51.8117 304.058 54.4897 296.896 52.7832 294.073C51.7734 292.402 51.1653 293.373 48.3974 301.076C47.0515 304.82 45.7737 307.749 45.5578 307.583C45.3418 307.418 45.1652 304.384 45.1652 300.841C45.1652 294.825 45.0981 294.34 44.1503 293.518C42.6178 292.187 41.1884 292.427 40.268 294.169ZM135.326 293.945C130.499 296.779 126.865 304.937 127.979 310.439C128.324 312.141 130.7 314.14 132.361 314.125C133.88 314.111 137.123 312.248 139.52 310.011C142.759 306.99 141.723 305.454 138.326 308.24C135.907 310.225 134.134 309.962 133.576 307.536C132.802 304.171 135.843 294.569 137.323 295.703C138.337 296.48 136.998 303.173 135.249 306.076C134.198 307.82 134.188 307.915 135.042 307.915C135.896 307.915 138.298 305.812 139.562 303.957C144.235 297.103 141.391 290.383 135.326 293.945ZM185.543 293.945C180.717 296.779 177.083 304.937 178.197 310.439C178.542 312.141 180.917 314.14 182.579 314.125C184.098 314.111 187.34 312.248 189.738 310.011C192.977 306.99 191.941 305.454 188.544 308.24C186.125 310.225 184.351 309.962 183.794 307.536C183.02 304.171 186.061 294.569 187.541 295.703C188.555 296.48 187.216 303.173 185.467 306.076C184.416 307.82 184.405 307.915 185.26 307.915C186.114 307.915 188.516 305.812 189.78 303.957C194.452 297.103 191.609 290.383 185.543 293.945ZM202.895 293.172C199.323 294.234 195.753 298.058 194.832 301.807C194.111 304.741 195.057 306.349 198.423 307.91C201.636 309.4 202.21 309.956 202.21 311.579C202.21 313.077 200.149 316.027 199.346 315.679C198.989 315.524 198.809 314.375 198.85 312.506C198.91 309.757 198.853 309.599 197.937 309.951C194.132 311.414 192.765 315.836 195.62 317.448C198.62 319.142 202.448 317.801 205.678 313.924C207.756 311.429 208.145 310.645 208.145 308.943C208.145 306.481 207.752 306.058 204.264 304.758C200.836 303.48 200.384 303.058 200.384 301.139C200.384 299.297 202.199 295.749 203.141 295.749C203.655 295.749 203.807 296.56 203.803 299.286C203.799 302.516 203.883 302.822 204.768 302.822C205.931 302.822 208.061 300.322 208.423 298.531C209.139 294.998 206.232 292.18 202.895 293.172ZM262.356 293.76C260.238 295.825 257.648 306.019 257.984 310.97C258.276 315.273 260.078 315.033 265.501 309.967C267.042 308.527 268.429 307.349 268.583 307.349C268.736 307.349 268.862 308.252 268.862 309.355C268.862 312.963 271.84 315.232 274.371 313.554C275.179 313.017 275.254 312.299 275.254 305.048C275.254 294.389 274.705 294.203 268.121 302.624C263.531 308.497 262.717 308.132 265.21 301.317C266.784 297.015 266.93 294.903 265.745 293.574C264.648 292.343 263.759 292.392 262.356 293.76ZM318.549 293.427C315.358 294.84 312.669 298.37 311.035 303.294C309.581 307.678 309.639 309.73 311.282 312.008C312.461 313.643 312.878 313.852 314.891 313.816C316.641 313.785 317.766 313.327 319.748 311.839C321.166 310.772 322.757 309.334 323.283 308.64C324.79 306.65 323.227 306.376 320.728 308.192C319.474 309.102 318.161 309.621 317.387 309.511C316.133 309.332 316.113 309.27 316.151 305.652C316.179 302.879 316.496 301.172 317.439 298.72C318.873 294.989 319.993 294.422 319.993 297.427C319.993 300.256 318.722 304.556 317.352 306.359C316.371 307.651 316.304 307.915 316.963 307.915C318.136 307.915 320.06 306.533 321.425 304.712C324.393 300.75 325.057 296.144 322.981 293.93C321.603 292.461 320.91 292.382 318.549 293.427ZM428.852 293.179C428.247 293.483 427.452 295.123 426.608 297.811C423.945 306.286 423.562 307.186 423.149 305.934C422.944 305.312 422.761 302.624 422.743 299.96C422.703 293.954 422.172 292.744 419.923 293.544C417.648 294.352 417.138 296.008 417.411 301.691C417.82 310.209 419.505 314.691 422.007 313.913C422.842 313.653 423.707 312.377 425.107 309.337C426.174 307.019 427.175 305.114 427.33 305.104C427.486 305.094 427.724 306.112 427.859 307.367C428.193 310.446 429.965 314.678 431.498 316.059C432.493 316.954 433.013 317.077 434.009 316.654C436.525 315.584 440.775 301.858 440.429 295.916C440.313 293.935 440.108 293.454 439.315 293.314C438.779 293.219 437.767 293.755 437.064 294.504C435.846 295.802 435.771 296.173 435.464 302.391C435.154 308.666 434.596 311.583 433.953 310.293C433.533 309.45 432.304 299.036 432.301 296.287C432.297 292.958 431.221 291.989 428.852 293.179ZM27.0315 294.645C22.7302 297.301 18.7013 304.348 18.6913 309.232C18.6853 311.987 20.6749 314.705 22.6968 314.705C24.365 314.705 27.0557 312.561 29.2996 309.443C30.9846 307.102 31.0106 307.089 31.0115 308.585C31.0133 310.562 31.7917 313.125 32.6317 313.919C33.4635 314.706 35.0769 314.35 36.3136 313.108C37.1892 312.228 37.2431 311.712 37.0513 306.076C36.8916 301.391 36.6989 299.993 36.2113 299.993C35.4517 299.993 35.4266 299.703 36.0598 298.237C37.8831 294.015 31.9036 291.636 27.0315 294.645ZM77.7021 294.476C75.5848 297.318 73.4583 311.228 74.8283 313.275C75.7473 314.646 77.3881 314.3 78.6293 312.471C79.5565 311.106 79.8163 309.952 80.0637 306.105C80.6097 297.602 81.3279 295.776 81.899 301.44C82.1514 303.943 82.3377 304.459 82.8139 303.969C83.9556 302.795 84.8331 296.307 84.1492 294.098C83.7821 292.912 82.6248 292.96 81.8515 294.193C81.2594 295.136 81.2073 295.136 80.7513 294.193C80.0943 292.835 78.838 292.952 77.7021 294.476ZM280.995 294.288C278.977 297.051 276.815 310.279 277.951 312.91C278.668 314.571 280.336 314.476 281.775 312.693C282.752 311.481 282.988 310.538 283.228 306.893C283.638 300.682 283.955 298.296 284.371 298.296C284.847 298.296 285.283 300.375 285.291 302.681C285.295 303.692 285.48 304.52 285.704 304.52C286.468 304.52 287.58 299.976 287.58 296.852C287.58 293.384 286.796 292.371 285.358 293.983C284.34 295.126 283.928 295.146 283.928 294.052C283.928 292.827 281.945 292.986 280.995 294.288ZM300.817 293.961C294.436 296.114 288.201 306.176 289.872 311.625C290.493 313.65 291.059 314.119 292.892 314.131C294.187 314.139 295.99 312.874 300.938 308.49C301.868 307.666 301.88 307.701 301.603 310.471C301.007 316.43 299.04 322.127 298.154 320.461C297.706 319.619 298.24 315.318 299.015 313.522C299.485 312.434 299.448 312.402 298.457 313.036C295.439 314.968 293.058 318.264 293.058 320.512C293.058 321.933 294.873 323.759 296.287 323.759C298.171 323.759 301.81 321.366 303.344 319.118C305.134 316.494 306.651 312.151 307.529 307.135C308.233 303.116 308.231 302.776 307.504 301.78C306.871 300.913 306.819 300.42 307.223 299.104C308.518 294.88 305.434 292.403 300.817 293.961ZM329.292 294.651C327.309 298.404 325.43 309.756 326.326 312.583C326.851 314.242 328.038 314.596 329.6 313.56C331.014 312.622 331.46 310.965 331.917 304.949C332.154 301.82 332.47 299.016 332.619 298.718C333.095 297.764 333.675 299.616 333.682 302.115C333.694 306.418 335.105 304.77 335.869 299.559C336.617 294.462 335.6 291.907 333.682 294.06C332.871 294.969 332.77 294.975 332.508 294.129C332.063 292.691 330.165 292.999 329.292 294.651ZM351.512 294.44C349.602 296.981 347.394 307.317 348.057 310.611C348.781 314.205 351.014 315.231 352.156 312.494C353.36 309.609 354.777 302.219 354.848 298.457C354.905 295.445 354.764 294.676 354.031 294.009C352.857 292.94 352.607 292.983 351.512 294.44ZM361.947 294.392C360.664 295.982 359.415 299.597 358.326 304.875C357.241 310.134 357.191 312.632 358.145 313.816C359.497 315.49 360.495 314.794 363.899 309.799C365.739 307.101 367.449 304.809 367.7 304.707C367.967 304.597 368.157 305.796 368.157 307.591C368.157 311.333 369.384 313.77 371.397 314.023C373.99 314.349 374.182 313.619 373.894 304.52L373.635 296.315L372.142 296.137C370.848 295.982 370.256 296.428 367.68 299.493L364.711 303.028L365.015 298.977C365.427 293.469 364.188 291.615 361.947 294.392ZM446.548 295.216C445.159 297.304 443.019 304.958 442.521 309.619C442.304 311.643 442.43 312.452 443.131 313.524C444.497 315.616 445.821 314.715 449.329 309.308C451.038 306.675 452.601 304.52 452.802 304.52C453.004 304.52 453.168 305.938 453.168 307.672C453.168 311.359 454.305 313.755 456.185 314.034C458.744 314.413 458.939 313.827 458.996 305.571C459.026 301.414 458.878 297.567 458.669 297.022C458.429 296.399 457.772 296.032 456.895 296.032C455.808 296.032 454.851 296.807 452.532 299.566L449.563 303.101L449.892 300.922C450.466 297.133 450.367 294.322 449.639 293.751C448.499 292.858 447.94 293.123 446.548 295.216ZM28.0752 296.992C26.6595 298.873 24.6215 303.737 24.6215 305.234C24.6215 306.913 25.4912 308.481 26.4221 308.481C27.3365 308.481 32.3825 303.676 32.3825 302.805C32.3825 302.519 31.7315 302.446 30.9362 302.644C29.6356 302.965 29.5296 302.893 29.8834 301.922C30.471 300.309 30.4112 295.887 29.7985 295.629C29.5073 295.507 28.7316 296.12 28.0752 296.992ZM300.192 297.177C298.25 299.29 296.254 304.072 296.254 306.611C296.254 309.156 297.114 309.039 300.185 306.076C302.23 304.103 302.51 303.639 301.748 303.49C300.643 303.275 300.626 303.154 301.47 301.529C302.356 299.824 302.847 296.253 302.257 295.802C301.998 295.603 301.069 296.222 300.192 297.177ZM161.391 304.368C160.737 306.805 159.689 309.733 159.064 310.874C158.439 312.014 157.927 313.07 157.927 313.22C157.927 313.37 159.092 313.793 160.516 314.16C164.299 315.133 166.224 314.29 167.791 310.974C169.245 307.899 169.448 304.533 168.276 302.928C167.826 302.312 166.597 301.512 165.545 301.151C164.494 300.79 163.397 300.369 163.108 300.215C162.785 300.043 162.124 301.641 161.391 304.368ZM241.916 301.445C241.671 302.243 241.471 303.203 241.471 303.577C241.471 303.952 240.649 306.286 239.645 308.764C238.64 311.242 237.819 313.312 237.819 313.365C237.819 313.847 242.751 314.746 243.914 314.475C245.425 314.124 247.307 312.097 248.263 309.791C248.947 308.14 248.914 304.403 248.205 303.213C247.773 302.488 243.347 299.993 242.493 299.993C242.42 299.993 242.161 300.646 241.916 301.445Z" fill="#FE5D0A"/>
<path d="M241.661 1.03299C238.883 2.75677 237.059 5.82726 233.717 14.1768C228.941 26.2433 227.075 36.586 228.855 40.8416C230.374 44.5047 232.545 43.535 238.448 36.3706L242.442 31.4686V34.539C242.442 41.919 245.394 44.7201 250.126 41.8651C252.21 40.6262 252.297 40.1952 251.342 36.3167C250.647 33.4078 250.517 27.9132 251.081 24.1963C252.297 16.547 247.825 17.0319 240.836 25.3814C238.275 28.3981 238.101 28.5058 238.101 27.213C238.101 23.2806 240.489 12.8301 242.703 7.01236C244.179 3.24158 244.83 2.37969 245.307 3.83414C245.698 5.12698 244.266 12.3453 242.876 15.9545C242.182 17.8399 241.574 19.6175 241.574 19.8869C241.574 21.5568 245.611 18.8095 247.955 15.5774C250.777 11.6989 251.732 6.0966 250.083 3.02611C248.433 -0.0443764 244.83 -0.906269 241.661 1.03299Z" fill="#ECECEC"/>
<path d="M211.403 1.1946C209.797 2.05649 207.41 5.34245 207.019 7.22784C206.498 9.70578 207.54 10.2445 212.228 10.1906L216.396 10.1367L215.701 12.1298C212.402 21.4491 208.582 35.9935 208.582 39.1717C208.582 41.111 210.101 43.535 211.317 43.535C212.575 43.535 216.439 41.2726 217.351 39.9797C217.741 39.3872 218.306 38.2021 218.566 37.3402C219.608 34.0542 224.166 10.6754 223.949 9.92125C223.776 9.38257 224.21 9.05936 225.512 8.79002C227.856 8.3052 228.985 6.90463 228.985 4.48056C228.985 1.94875 228.29 1.57167 221.952 0.979122C214.92 0.278835 212.966 0.332703 211.403 1.1946Z" fill="#ECECEC"/>
<path d="M266.188 13.5843C261.977 15.4697 258.591 19.5637 256.16 25.7585C254.554 29.9064 254.38 30.7144 254.38 34.4852C254.38 38.1482 254.511 38.7408 255.466 40.0336C257.245 42.4038 258.808 43.158 261.543 42.8886C264.756 42.6193 268.793 40.1952 271.962 36.6399C274.046 34.3236 274.263 33.8926 273.742 33.0846C272.873 31.7917 272.092 32.0072 269.487 34.162C266.883 36.3167 264.495 37.017 263.497 35.9935C262.585 35.0238 262.672 34.2158 263.67 34.6468C265.754 35.4548 270.877 30.6066 272.917 25.9201C276.694 17.3551 273.004 10.5677 266.188 13.5843ZM267.794 21.0181C267.708 23.7654 267.404 25.3814 266.362 28.021C264.929 31.7918 263.627 33.6233 262.846 33.0307C261.326 31.8456 265.711 16.6009 267.36 17.3012C267.664 17.4628 267.794 18.8095 267.794 21.0181Z" fill="#ECECEC"/>
<path d="M171.813 204.87C166.43 206.056 163.478 208.533 162.132 212.897C161.481 214.998 162.089 215.698 163.912 214.89C164.693 214.567 165.388 214.405 165.518 214.567C165.648 214.674 165.301 216.075 164.78 217.583C162.523 223.994 158.659 240.477 158.659 243.494C158.659 245.864 160.135 247.426 161.915 247.049C163.261 246.726 163.261 246.888 161.915 248.881C160.613 250.82 160.569 251.143 161.655 252.49C163.825 255.183 170.771 255.399 175.416 252.921C184.228 248.288 190.349 240.854 190.349 234.875C190.349 230.566 187.962 227.387 183.621 226.095L181.493 225.448L183.403 224.425C186.008 223.024 188.786 220.115 189.655 217.853C190.566 215.482 190.566 210.634 189.698 209.018C187.31 204.817 179.757 203.093 171.813 204.87ZM179.974 211.927C180.972 213.058 181.059 216.398 180.191 218.499C178.932 221.462 175.199 225.071 173.376 225.071H172.203L173.81 218.445C174.678 214.836 175.546 211.55 175.763 211.119C176.241 210.203 178.889 210.688 179.974 211.927ZM175.807 229.381C177.283 229.381 179.496 231.481 180.191 233.528C181.971 238.807 177.065 247.696 172.377 247.696C171.162 247.696 166.169 246.241 165.475 245.703C165.258 245.541 165.518 244.895 165.996 244.248C167.298 242.524 169.295 237.245 170.597 232.02L171.726 227.387L173.332 228.357C174.2 228.95 175.286 229.381 175.807 229.381Z" fill="white"/>
<path d="M198.814 219.307C197.338 221.246 196.731 222.755 195.428 227.549C193.648 234.229 192.693 241.178 193.127 244.087C193.301 245.325 193.822 246.403 194.517 246.942C195.472 247.75 195.732 247.75 197.425 246.942C198.424 246.457 201.332 244.14 203.937 241.77L208.582 237.461V240.208C208.582 243.44 209.407 245.649 210.969 246.511C212.445 247.319 215.484 247.319 216.743 246.457C217.741 245.81 217.741 245.703 217.785 234.929C217.872 223.67 217.655 222.378 216.005 222.378C214.616 222.378 212.185 224.748 207.41 230.835C201.028 238.861 200.507 238.592 203.893 229.111C206.802 221.085 206.194 216.991 202.157 216.991C200.898 216.991 200.29 217.422 198.814 219.307Z" fill="white"/>
<path d="M227.248 217.368C225.165 218.337 223.732 221.462 222.256 228.465C218.957 243.979 220.824 251.305 226.641 245.81C228.29 244.248 228.464 243.494 229.158 233.636C229.462 229.488 229.853 225.987 229.983 225.771C230.591 225.071 230.895 226.256 231.199 229.973C231.329 232.02 231.589 233.905 231.763 234.121C232.241 234.66 233.673 232.289 234.194 230.027C234.845 227.28 235.236 221.192 234.889 219.469C234.455 217.26 233.152 216.721 231.72 218.284L230.504 219.576L229.549 218.284C228.551 216.937 228.334 216.883 227.248 217.368Z" fill="white"/>
<path d="M277.953 217.799C272.526 220.331 268.315 226.741 266.535 235.144C264.321 245.487 270.703 250.335 279.211 244.787C280.861 243.709 283.162 241.716 284.334 240.37C286.418 237.999 286.461 237.892 285.68 237.137C284.464 236.06 284.16 236.168 281.512 238.269C280.21 239.346 278.69 240.316 278.213 240.477C276.694 240.962 275.218 240.477 275.087 239.508C275.001 238.807 275.131 238.646 275.608 238.861C276.65 239.346 279.863 237.191 282.12 234.336C286.287 229.327 287.546 222.539 285.072 219.092C284.073 217.691 283.466 217.368 281.686 217.206C280.514 217.098 278.821 217.368 277.953 217.799ZM279.949 222.27C280.644 224.963 278.517 233.259 276.433 235.952C274.914 237.945 274.566 237.838 274.566 235.414C274.566 232.074 276.737 224.532 278.387 222.216C279.211 221.031 279.646 221.031 279.949 222.27Z" fill="white"/>
<path d="M295.1 217.422C292.799 217.853 290.629 223.778 289.153 233.636C287.937 241.501 288.328 246.672 290.195 247.426C291.497 247.965 293.928 246.78 295.143 245.002C296.272 243.332 296.446 242.04 297.14 232.128C297.748 223.401 298.269 222.97 299.181 230.619C299.354 232.343 299.745 233.798 299.962 233.852C300.222 233.905 300.874 232.774 301.481 231.32C302.914 227.657 303.305 219.684 302.133 218.068C301.134 216.721 300.96 216.721 299.398 218.338C298.356 219.415 298.052 219.523 297.878 218.93C297.531 217.853 296.272 217.152 295.1 217.422Z" fill="white"/>
<path d="M251.949 218.93C248.954 220.223 244.222 224.478 241.878 228.088C238.666 233.044 237.45 236.491 237.45 240.854C237.45 244.356 237.537 244.625 238.883 246.134C241.401 248.935 244.222 247.965 250.604 242.201C252.601 240.423 254.294 239.077 254.38 239.185C255.118 240.1 252.123 253.729 250.734 255.884C249.953 257.015 249.866 257.069 249.562 256.153C249.128 254.699 249.649 250.443 250.647 247.534C251.255 245.756 251.385 245.002 250.994 245.002C249.953 245.002 244.917 249.096 243.832 250.82C242.442 253.083 242.095 256.746 243.05 258.631C244.656 261.594 247.652 261.809 251.949 259.17C256.725 256.315 260.154 250.497 261.977 242.201C263.888 233.421 264.018 229.758 262.412 229.111C261.674 228.842 261.63 228.68 262.238 226.903C262.585 225.825 262.846 223.994 262.759 222.755C262.585 219.523 260.719 218.068 256.812 218.122C255.249 218.122 253.035 218.499 251.949 218.93ZM255.466 223.67C255.466 224.64 254.901 226.903 254.163 228.626C253.469 230.35 252.861 231.858 252.861 231.912C252.861 231.966 253.469 232.074 254.207 232.182C255.553 232.343 255.553 232.397 252.167 235.683C247.522 240.262 246.48 240.154 247.261 235.144C247.782 231.643 249.562 227.549 251.863 224.478C254.25 221.3 255.466 221.031 255.466 223.67Z" fill="white"/>
<path d="M107 235.306V238.538H122.975C131.788 238.538 141.382 238.7 144.247 238.915L149.543 239.238V235.683V232.074H128.271H107V235.306Z" fill="#ECECEC"/>
<path d="M310.164 235.306V238.538L328.179 238.646C338.077 238.7 347.714 238.807 349.581 238.807H352.923V235.575V232.343L331.565 232.182L310.164 232.074V235.306Z" fill="#ECECEC"/>
<path d="M117.469 54.8804C110.61 55.9577 102.406 58.8666 94.2445 63.1761C82.046 69.5864 71.6708 79.3904 68.5018 87.4168C66.1576 93.3423 65.2026 103.793 66.7654 106.109C67.3297 106.971 69.0227 107.025 70.2816 106.217C70.8026 105.84 72.4522 104.385 73.8848 102.985C75.3607 101.53 76.6631 100.345 76.7499 100.345C76.8367 100.345 76.6631 103.2 76.3592 106.648C75.9685 111.173 75.8817 118.283 76.0119 131.319C76.446 163.856 77.5313 182.387 79.3111 186.965C81.3515 192.137 86.7344 193.86 91.1189 190.682C92.2476 189.874 93.1593 189.443 93.1593 189.766C93.1593 190.09 92.5949 191.76 91.8569 193.537C90.1205 197.793 90.0771 201.348 91.6833 203.718C95.0259 208.674 108.136 207.866 117.773 202.102C129.755 194.938 146.815 172.421 153.761 154.591C156.279 148.019 157.408 142.416 157.408 136.221C157.408 121.084 150.939 112.142 139.088 110.796C136.266 110.526 128.973 111.227 126.933 111.981C125.674 112.466 126.065 111.442 127.541 110.311C131.578 107.402 137.221 98.9985 139.87 91.9956C142.691 84.5079 143.169 80.1985 141.997 73.2495C140.347 63.607 136.006 57.897 128.756 55.7423C126.499 55.0959 119.683 54.5572 117.469 54.8804ZM111.696 77.7744C112.347 78.0437 113.476 78.9595 114.127 79.7675C118.121 84.4002 118.728 93.3962 115.733 102.554C114.127 107.456 110.176 114.782 107.485 117.745C105.401 120.061 102.536 121.839 101.972 121.138C101.841 120.977 101.407 111.927 100.973 101.045C100.105 78.4208 99.888 80.1446 104.012 78.3131C106.703 77.128 109.872 76.9125 111.696 77.7744ZM110.307 129.111C119.076 128.303 120.986 128.518 124.155 130.458C127.324 132.397 129.321 134.875 130.753 138.861C134.53 149.096 131.882 167.142 125.5 174.63C121.073 179.801 115.82 181.956 105.401 182.817C101.711 183.141 98.629 183.248 98.4988 183.141C98.412 182.979 98.8895 180.824 99.5841 178.346C102.015 169.943 102.493 164.071 102.449 145.002L102.406 127.926L103.969 128.788C105.228 129.434 106.443 129.488 110.307 129.111Z" fill="white"/>
<path d="M212.235 61.0215C207.808 61.6141 205.073 62.476 200.862 64.6307C190.573 69.8559 180.198 81.8147 174.945 94.5276C168.911 109.234 167.956 122.97 172.167 134.013C175.944 143.817 186.536 149.904 199.863 149.904C210.803 149.904 221.265 144.086 229.947 133.259C234.245 127.926 235.894 124.478 237.935 116.883C243.665 95.3895 237.501 73.8421 224.955 71.5258C221.135 70.7717 213.711 74.6502 208.98 79.8754C207.808 81.1144 206.896 82.4611 206.896 82.8382C206.896 83.2691 208.198 84.8851 209.848 86.5012C214.102 90.7568 216.36 94.0427 217.966 98.3522C219.919 103.739 220.57 107.348 220.484 113.004C220.353 126.525 213.191 136.06 204.942 133.798C200.688 132.612 197.302 128.357 195.132 121.462C194.22 118.714 194.133 117.422 194.09 109.772C194.09 100.291 194.567 97.0055 197.042 89.841C201.252 77.5052 208.502 69.425 217.618 66.947C220.31 66.2467 221.656 65.6003 222.22 64.7384C222.611 64.092 222.958 63.4456 222.958 63.2301C222.915 60.8599 219.225 60.1058 212.235 61.0215Z" fill="white"/>
<path d="M270.276 62.6914C267.151 63.3378 263.678 65.4926 262.202 67.6473C259.423 71.7413 257.209 80.037 256.385 89.7333C255.299 102.177 257.947 119.953 263.591 138.376C264.893 142.578 265.935 146.187 265.935 146.51C265.935 146.78 264.112 147.695 261.941 148.504C253.216 151.682 248.267 156.099 245.488 163.102C243.622 167.788 243.491 171.344 245.098 172.367C245.705 172.744 247.442 173.067 248.961 173.067C256.298 173.067 266.065 167.627 277.178 157.284C282.605 152.274 291.634 141.016 296.453 133.259C308.695 113.597 321.935 87.0937 324.106 77.99C325.104 73.7883 323.064 71.2565 318.81 71.2565C314.599 71.3103 308.565 75.2427 305.569 79.8754C304.527 81.4914 302.053 86.986 300.013 91.9957C296.713 100.238 284.037 127.549 282.648 129.38C281.693 130.619 281.389 124.371 281.563 106.271C281.91 69.2633 281.867 67.755 280.868 66.0312C278.958 62.853 275.138 61.6679 270.276 62.6914Z" fill="white"/>
<path d="M361.612 108.749C345.376 111.873 331.18 126.148 331.875 138.592C332.222 144.517 335.565 150.012 344.291 158.9C349.587 164.287 351.323 167.303 351.323 170.859C351.323 175.545 348.892 179.639 344.247 182.602C342.467 183.733 341.382 184.056 339.081 184.11C337.518 184.11 336.042 183.949 335.869 183.733C335.695 183.518 335.478 182.117 335.348 180.609C335.044 176.73 336.737 172.744 340.557 168.165C342.163 166.226 343.509 164.395 343.509 164.125C343.509 162.94 341.86 161.755 339.168 160.893C332.787 158.9 324.452 161.755 319.98 167.519C314.12 175.007 316.811 185.295 326.145 191.113C333.091 195.423 341.686 197.416 348.849 196.338C359.007 194.776 370.684 188.42 374.982 182.117C377.109 178.993 378.672 174.252 378.672 170.913C378.629 165.041 376.588 161.809 367.168 153.028C356.532 143.009 355.621 140.962 358.616 133.474C360.222 129.488 365.388 123.293 368.818 121.354C370.381 120.438 372.334 119.522 373.202 119.361L374.765 119.037V123.131C374.765 128.518 373.767 131.804 369.946 138.861C366.908 144.517 366.517 145.81 367.515 147.318C371.032 152.974 381.841 150.604 388.309 142.74C392.477 137.622 393.823 131.373 392.216 124.801C389.047 112.088 376.936 105.786 361.612 108.749Z" fill="white"/>
</svg>
