<svg width="130" height="130" viewBox="0 0 130 130" fill="none" xmlns="http://www.w3.org/2000/svg">
<path d="M35.8363 108.333C33.4277 108.333 31.3676 107.476 29.6559 105.76C27.9443 104.045 27.0866 101.989 27.083 99.5908V55.8404C27.083 54.4537 27.3936 53.1411 28.0147 51.9025C28.6358 50.6638 29.4916 49.6437 30.5822 48.842L59.7509 26.8612C61.2784 25.6912 63.0226 25.1062 64.9834 25.1062C66.9443 25.1062 68.6993 25.6912 70.2484 26.8612L99.4172 48.8366C100.511 49.6383 101.367 50.6602 101.985 51.9025C102.606 53.1411 102.916 54.4537 102.916 55.8404V99.5908C102.916 101.996 102.059 104.054 100.343 105.766C98.6281 107.477 96.5698 108.335 94.1684 108.339L35.8363 108.333ZM58.1259 93.9575C58.7759 93.9575 59.3212 93.739 59.7618 93.302C60.1951 92.8651 60.4118 92.3198 60.4118 91.6662V75.6275C62.3256 75.6275 63.9506 74.9594 65.2868 73.6233C66.6229 72.2872 67.2909 70.6622 67.2909 68.7483V57.292C67.2909 56.642 67.0725 56.0968 66.6355 55.6562C66.1986 55.2193 65.6533 55.0008 64.9997 55.0008C64.3461 55.0008 63.8008 55.2193 63.3638 55.6562C62.9269 56.0931 62.7084 56.6384 62.7084 57.292V68.7483H60.4172V57.292C60.4172 56.642 60.1987 56.0968 59.7618 55.6562C59.3248 55.2193 58.7795 55.0008 58.1259 55.0008C57.4723 55.0008 56.927 55.2193 56.4901 55.6562C56.0531 56.0931 55.8347 56.6384 55.8347 57.292V68.7483H53.5434V57.292C53.5434 56.642 53.325 56.0968 52.888 55.6562C52.4475 55.2193 51.9022 55.0008 51.2522 55.0008C50.6022 55.0008 50.0551 55.2193 49.6109 55.6562C49.1776 56.0931 48.9609 56.6384 48.9609 57.292V68.7483C48.9609 70.6622 49.629 72.2872 50.9651 73.6233C52.3012 74.9594 53.9244 75.6275 55.8347 75.6275V91.6662C55.8347 92.3162 56.0513 92.8615 56.4847 93.302C56.9252 93.739 57.4723 93.9575 58.1259 93.9575ZM76.4559 93.9575C77.1095 93.9575 77.6548 93.739 78.0918 93.302C78.5287 92.8651 78.7472 92.3198 78.7472 91.6662V57.9745C78.7472 57.1368 78.4583 56.4326 77.8805 55.862C77.3027 55.2915 76.5895 55.0026 75.7409 54.9954C73.6573 54.9954 72.11 55.9523 71.0988 57.8662C70.0877 59.7765 69.5822 61.8763 69.5822 64.1658V73.5258C69.5822 74.7716 70.0281 75.7575 70.9201 76.4833C71.812 77.2091 72.8231 77.6876 73.9534 77.9187H74.1701V91.6662C74.1701 92.3162 74.3868 92.8615 74.8201 93.302C75.257 93.739 75.8023 93.9575 76.4559 93.9575Z" fill="white"/>
</svg>
