<svg width="100" height="100" viewBox="0 0 100 100" fill="none" xmlns="http://www.w3.org/2000/svg">
<path d="M79.9845 86.2656C78.4837 85.5255 77.2208 84.3788 76.3396 82.9562C75.4584 81.5336 74.9943 79.8922 75.0001 78.2188C74.9891 73.3618 73.6021 68.6074 70.9999 64.5063C68.3976 60.4053 64.6867 57.1255 60.297 55.0469L52.9689 51.5625H60.9376C61.352 51.5625 61.7495 51.3979 62.0425 51.1049C62.3355 50.8118 62.5001 50.4144 62.5001 50C62.5001 49.5856 62.3355 49.1882 62.0425 48.8951C61.7495 48.6021 61.352 48.4375 60.9376 48.4375H57.8126L60.3126 46.5625C60.6441 46.3139 60.8633 45.9437 60.9219 45.5335C60.9805 45.1232 60.8738 44.7065 60.6251 44.375C60.3765 44.0435 60.0063 43.8243 59.5961 43.7657C59.1859 43.7071 58.7691 43.8139 58.4376 44.0625L53.7501 47.5312L52.5626 48.4219H52.3439L55.297 44.4844L54.8751 44.1719C54.4689 43.8437 54.3283 43.7344 53.9064 43.7344C53.7205 43.7325 53.5365 43.7706 53.3666 43.8461C53.1968 43.9216 53.0451 44.0327 52.922 44.1719C52.1183 44.8965 51.0745 45.2976 49.9923 45.2976C48.9101 45.2976 47.8663 44.8965 47.0626 44.1719C46.6564 43.8437 46.5158 43.7344 46.0939 43.7344C45.672 43.7344 45.5314 43.8437 45.1095 44.1719L44.7033 44.4844L47.6564 48.4375H46.7189C46.6206 48.4212 46.5203 48.4212 46.422 48.4375C46.3184 48.4228 46.2131 48.4228 46.1095 48.4375C45.8356 48.5883 45.6132 48.8178 45.4711 49.0964C45.3291 49.3749 45.2739 49.6897 45.3126 50C45.2888 50.1291 45.2888 50.2615 45.3126 50.3906C45.3598 50.5874 45.4447 50.7731 45.5626 50.9375H45.6408C45.6957 51.0213 45.7643 51.0953 45.8439 51.1562C46.0326 51.2786 46.2378 51.3733 46.4533 51.4375C46.5865 51.5008 46.7289 51.543 46.8751 51.5625H47.1251L39.7501 55.0156C35.348 57.0913 31.6252 60.3734 29.0143 64.4807C26.4033 68.588 25.0114 73.3518 25.0001 78.2188C25.006 79.8922 24.5419 81.5336 23.6607 82.9562C22.7795 84.3788 21.5166 85.5255 20.0158 86.2656C19.5481 86.4948 19.1722 86.876 18.9497 87.3469C18.7272 87.8177 18.6713 88.3502 18.7912 88.857C18.9111 89.3637 19.1996 89.8148 19.6095 90.136C20.0194 90.4572 20.5263 90.6297 21.047 90.625H78.9533C79.474 90.6297 79.9809 90.4572 80.3908 90.136C80.8006 89.8148 81.0892 89.3637 81.2091 88.857C81.329 88.3502 81.2731 87.8177 81.0506 87.3469C80.8281 86.876 80.4522 86.4948 79.9845 86.2656ZM48.8283 71.875H51.172C52.4656 71.8284 53.7253 72.2949 54.6764 73.1729C55.6276 74.0509 56.1933 75.2693 56.2501 76.5625C56.2074 77.7921 55.6998 78.9597 54.8298 79.8297C53.9598 80.6996 52.7922 81.2072 51.5626 81.25V82.8125C51.5626 83.2269 51.398 83.6243 51.105 83.9174C50.812 84.2104 50.4145 84.375 50.0001 84.375C49.5857 84.375 49.1883 84.2104 48.8953 83.9174C48.6022 83.6243 48.4376 83.2269 48.4376 82.8125V81.25H45.3126C44.8982 81.25 44.5008 81.0854 44.2078 80.7924C43.9147 80.4993 43.7501 80.1019 43.7501 79.6875C43.7501 79.2731 43.9147 78.8757 44.2078 78.5826C44.5008 78.2896 44.8982 78.125 45.3126 78.125H51.172C51.5864 78.125 51.9838 77.9604 52.2769 77.6674C52.5699 77.3743 52.7345 76.9769 52.7345 76.5625C52.7345 76.1481 52.5699 75.7507 52.2769 75.4576C51.9838 75.1646 51.5864 75 51.172 75H48.8283C47.5346 75.0466 46.275 74.5801 45.3238 73.7021C44.3727 72.824 43.807 71.6057 43.7501 70.3125C43.7929 69.0829 44.3005 67.9153 45.1705 67.0453C46.0404 66.1754 47.208 65.6678 48.4376 65.625V64.0625C48.4376 63.6481 48.6022 63.2507 48.8953 62.9576C49.1883 62.6646 49.5857 62.5 50.0001 62.5C50.4145 62.5 50.812 62.6646 51.105 62.9576C51.398 63.2507 51.5626 63.6481 51.5626 64.0625V65.625H54.6876C55.102 65.625 55.4995 65.7896 55.7925 66.0826C56.0855 66.3757 56.2501 66.7731 56.2501 67.1875C56.2501 67.6019 56.0855 67.9993 55.7925 68.2924C55.4995 68.5854 55.102 68.75 54.6876 68.75H48.8283C48.4139 68.75 48.0164 68.9146 47.7234 69.2076C47.4304 69.5007 47.2658 69.8981 47.2658 70.3125C47.2658 70.7269 47.4304 71.1243 47.7234 71.4174C48.0164 71.7104 48.4139 71.875 48.8283 71.875ZM40.6251 29.6875H48.4376V41.3281C48.6564 41.4688 48.8439 41.625 49.0158 41.75C49.1389 41.8892 49.2905 42.0003 49.4604 42.0758C49.6302 42.1513 49.8143 42.1894 50.0001 42.1875C50.422 42.1875 50.5626 42.0781 50.9689 41.75C51.1555 41.5894 51.354 41.4432 51.5626 41.3125V25H59.3751C61.6322 25 63.8672 24.5554 65.9525 23.6917C68.0378 22.8279 69.9325 21.5619 71.5285 19.9659C73.1245 18.3699 74.3906 16.4752 75.2543 14.3899C76.1181 12.3046 76.5626 10.0696 76.5626 7.8125C76.5626 7.3981 76.398 7.00067 76.105 6.70765C75.812 6.41462 75.4145 6.25 75.0001 6.25H65.6251C61.8238 6.25101 58.1301 7.51218 55.1219 9.83616C52.1137 12.1602 49.9608 15.4158 49.0001 19.0937C47.4601 16.6001 45.3079 14.5416 42.7481 13.1141C40.1884 11.6865 37.3061 10.9372 34.3751 10.9375H25.0001C24.5857 10.9375 24.1883 11.1021 23.8953 11.3951C23.6022 11.6882 23.4376 12.0856 23.4376 12.5C23.4376 17.0584 25.2484 21.4301 28.4717 24.6534C31.695 27.8767 36.0667 29.6875 40.6251 29.6875Z" fill="white"/>
</svg>
