<svg width="42" height="42" viewBox="0 0 42 42" fill="none" xmlns="http://www.w3.org/2000/svg">
<path d="M23.1587 0C25.5211 0.00629966 26.7201 0.018899 27.7554 0.0482974L28.1628 0.0629965C28.6331 0.0797956 29.0972 0.100794 29.6579 0.125993C31.8922 0.230987 33.4167 0.583768 34.7543 1.10244C36.1402 1.63581 37.3078 2.35817 38.4753 3.52361C39.5435 4.57299 40.3698 5.84287 40.8965 7.2446C41.4151 8.58223 41.7679 10.1067 41.8729 12.3431C41.8981 12.9017 41.9191 13.3658 41.9359 13.8382L41.9485 14.2456C41.98 15.2788 41.9926 16.4778 41.9968 18.8402L41.9989 20.4067V23.1575C42.004 24.6892 41.9879 26.2209 41.9506 27.7521L41.938 28.1595C41.9212 28.6319 41.9002 29.096 41.875 29.6546C41.77 31.891 41.413 33.4134 40.8965 34.7531C40.3698 36.1548 39.5435 37.4247 38.4753 38.4741C37.4259 39.5423 36.156 40.3686 34.7543 40.8953C33.4167 41.4139 31.8922 41.7667 29.6579 41.8717L28.1628 41.9347L27.7554 41.9473C26.7201 41.9767 25.5211 41.9914 23.1587 41.9956L21.5922 41.9977H18.8435C17.3111 42.0031 15.7787 41.987 14.2468 41.9494L13.8394 41.9368C13.3409 41.9179 12.8426 41.8962 12.3443 41.8717C10.11 41.7667 8.58553 41.4139 7.2458 40.8953C5.84482 40.3683 4.57567 39.542 3.5269 38.4741C2.45795 37.4249 1.63093 36.155 1.10363 34.7531C0.584963 33.4155 0.232182 31.891 0.127187 29.6546L0.0641909 28.1595L0.0536917 27.7521C0.0149825 26.2209 -0.00251838 24.6892 0.00119441 23.1575V18.8402C-0.00461785 17.3085 0.0107829 15.7769 0.047392 14.2456L0.0620912 13.8382C0.0788903 13.3658 0.0998891 12.9017 0.125088 12.3431C0.230082 10.1067 0.582863 8.58433 1.10153 7.2446C1.63006 5.8423 2.45853 4.57237 3.529 3.52361C4.57717 2.45592 5.84557 1.62967 7.2458 1.10244C8.58553 0.583768 10.1079 0.230987 12.3443 0.125993C12.9029 0.100794 13.3691 0.0797956 13.8394 0.0629965L14.2468 0.0503971C15.778 0.013088 17.3097 -0.0030127 18.8414 0.00209973L23.1587 0ZM21 10.4994C18.2154 10.4994 15.5449 11.6056 13.5758 13.5746C11.6068 15.5437 10.5006 18.2142 10.5006 20.9989C10.5006 23.7835 11.6068 26.454 13.5758 28.4231C15.5449 30.3921 18.2154 31.4983 21 31.4983C23.7847 31.4983 26.4552 30.3921 28.4243 28.4231C30.3933 26.454 31.4995 23.7835 31.4995 20.9989C31.4995 18.2142 30.3933 15.5437 28.4243 13.5746C26.4552 11.6056 23.7847 10.4994 21 10.4994ZM21 14.6992C21.8273 14.6991 22.6465 14.8619 23.4109 15.1783C24.1753 15.4948 24.8698 15.9587 25.4549 16.5436C26.04 17.1285 26.5041 17.8229 26.8208 18.5871C27.1375 19.3514 27.3006 20.1705 27.3008 20.9978C27.3009 21.8251 27.1381 22.6443 26.8216 23.4087C26.5052 24.173 26.0412 24.8676 25.4564 25.4526C24.8715 26.0377 24.1771 26.5019 23.4128 26.8186C22.6486 27.1353 21.8294 27.2984 21.0021 27.2985C19.3314 27.2985 17.729 26.6348 16.5476 25.4534C15.3662 24.272 14.7025 22.6696 14.7025 20.9989C14.7025 19.3281 15.3662 17.7257 16.5476 16.5443C17.729 15.3629 19.3314 14.6992 21.0021 14.6992M32.0265 7.3496C31.3304 7.3496 30.6627 7.62614 30.1705 8.1184C29.6782 8.61066 29.4017 9.2783 29.4017 9.97445C29.4017 10.6706 29.6782 11.3383 30.1705 11.8305C30.6627 12.3228 31.3304 12.5993 32.0265 12.5993C32.7227 12.5993 33.3903 12.3228 33.8826 11.8305C34.3749 11.3383 34.6514 10.6706 34.6514 9.97445C34.6514 9.2783 34.3749 8.61066 33.8826 8.1184C33.3903 7.62614 32.7227 7.3496 32.0265 7.3496Z" fill="white"/>
</svg>
