<svg width="50" height="50" viewBox="0 0 50 50" fill="none" xmlns="http://www.w3.org/2000/svg">
<path d="M27.1417 4.1665C29.4855 4.17275 30.675 4.18525 31.7021 4.21442L32.1063 4.229C32.573 4.24567 33.0334 4.2665 33.5896 4.2915C35.8063 4.39567 37.3188 4.74567 38.6459 5.26025C40.0209 5.78942 41.1792 6.50609 42.3375 7.66234C43.3973 8.70345 44.2171 9.96332 44.7396 11.354C45.2542 12.6811 45.6042 14.1936 45.7084 16.4123C45.7334 16.9665 45.7542 17.4269 45.7709 17.8957L45.7834 18.2998C45.8146 19.3248 45.8271 20.5144 45.8313 22.8582L45.8334 24.4123V27.1415C45.8385 28.6611 45.8225 30.1807 45.7855 31.6998L45.773 32.104C45.7563 32.5728 45.7355 33.0332 45.7105 33.5873C45.6063 35.8061 45.2521 37.3165 44.7396 38.6457C44.2171 40.0364 43.3973 41.2962 42.3375 42.3373C41.2964 43.3971 40.0366 44.2169 38.6459 44.7394C37.3188 45.254 35.8063 45.604 33.5896 45.7082L32.1063 45.7707L31.7021 45.7832C30.675 45.8123 29.4855 45.8269 27.1417 45.8311L25.5875 45.8332H22.8605C21.3402 45.8385 19.8199 45.8226 18.3 45.7853L17.8959 45.7728C17.4013 45.754 16.9069 45.7325 16.4125 45.7082C14.1959 45.604 12.6834 45.254 11.3542 44.7394C9.96428 44.2166 8.70513 43.3969 7.66463 42.3373C6.6041 41.2964 5.78361 40.0365 5.26046 38.6457C4.74588 37.3186 4.39588 35.8061 4.29171 33.5873L4.22921 32.104L4.2188 31.6998C4.18039 30.1807 4.16303 28.6611 4.16671 27.1415V22.8582C4.16095 21.3386 4.17623 19.819 4.21255 18.2998L4.22713 17.8957C4.2438 17.4269 4.26463 16.9665 4.28963 16.4123C4.3938 14.1936 4.7438 12.6832 5.25838 11.354C5.78274 9.96275 6.60468 8.70283 7.66671 7.66234C8.70662 6.60306 9.96502 5.78332 11.3542 5.26025C12.6834 4.74567 14.1938 4.39567 16.4125 4.2915C16.9667 4.2665 17.4292 4.24567 17.8959 4.229L18.3 4.2165C19.8192 4.17949 21.3388 4.16351 22.8584 4.16859L27.1417 4.1665ZM25 14.5832C22.2374 14.5832 19.5879 15.6806 17.6344 17.6341C15.6808 19.5876 14.5834 22.2372 14.5834 24.9998C14.5834 27.7625 15.6808 30.412 17.6344 32.3655C19.5879 34.319 22.2374 35.4165 25 35.4165C27.7627 35.4165 30.4122 34.319 32.3657 32.3655C34.3192 30.412 35.4167 27.7625 35.4167 24.9998C35.4167 22.2372 34.3192 19.5876 32.3657 17.6341C30.4122 15.6806 27.7627 14.5832 25 14.5832ZM25 18.7498C25.8208 18.7497 26.6336 18.9112 27.3919 19.2252C28.1502 19.5392 28.8393 19.9994 29.4198 20.5797C30.0002 21.16 30.4607 21.8489 30.7749 22.6071C31.0892 23.3653 31.251 24.178 31.2511 24.9988C31.2512 25.8196 31.0897 26.6323 30.7757 27.3906C30.4618 28.149 30.0015 28.8381 29.4212 29.4185C28.841 29.999 28.1521 30.4595 27.3938 30.7737C26.6356 31.0879 25.8229 31.2497 25.0021 31.2498C23.3445 31.2498 21.7548 30.5914 20.5827 29.4193C19.4106 28.2472 18.7521 26.6574 18.7521 24.9998C18.7521 23.3422 19.4106 21.7525 20.5827 20.5804C21.7548 19.4083 23.3445 18.7498 25.0021 18.7498M35.9396 11.4582C35.249 11.4582 34.5866 11.7325 34.0982 12.2209C33.6098 12.7093 33.3355 13.3717 33.3355 14.0623C33.3355 14.753 33.6098 15.4154 34.0982 15.9038C34.5866 16.3921 35.249 16.6665 35.9396 16.6665C36.6303 16.6665 37.2927 16.3921 37.7811 15.9038C38.2694 15.4154 38.5438 14.753 38.5438 14.0623C38.5438 13.3717 38.2694 12.7093 37.7811 12.2209C37.2927 11.7325 36.6303 11.4582 35.9396 11.4582Z" fill="white"/>
</svg>
