<svg width="56" height="56" viewBox="0 0 56 56" fill="none" xmlns="http://www.w3.org/2000/svg">
<path fill-rule="evenodd" clip-rule="evenodd" d="M53.372 15.816C52.8372 16.0078 52.259 16.0439 51.7045 15.92C51.15 15.7961 50.6422 15.5172 50.24 15.116L48.032 12.904L31.244 29.692C30.9654 29.9708 30.6346 30.1919 30.2705 30.3428C29.9064 30.4937 29.5161 30.5713 29.122 30.5713C28.7278 30.5713 28.3376 30.4937 27.9735 30.3428C27.6094 30.1919 27.2786 29.9708 27 29.692L20.596 23.288L5.33997 38.544C5.0631 38.8304 4.73196 39.0588 4.36587 39.2158C3.99979 39.3729 3.60609 39.4554 3.20775 39.4587C2.80941 39.462 2.41441 39.3859 2.04579 39.2349C1.67718 39.0839 1.34233 38.8609 1.06079 38.5791C0.779241 38.2973 0.55664 37.9623 0.405972 37.5935C0.255303 37.2247 0.179583 36.8297 0.183231 36.4313C0.186879 36.033 0.269822 35.6394 0.427219 35.2734C0.584616 34.9075 0.813316 34.5766 1.09997 34.3L18.468 16.92C18.7466 16.6412 19.0774 16.42 19.4415 16.2692C19.8056 16.1183 20.1958 16.0406 20.59 16.0406C20.9841 16.0406 21.3744 16.1183 21.7385 16.2692C22.1026 16.42 22.4334 16.6412 22.712 16.92L29.12 23.328L43.788 8.65997L41.58 6.45197C41.1779 6.05039 40.8981 5.54287 40.7733 4.98848C40.6484 4.43409 40.6836 3.85564 40.8747 3.32047C41.0658 2.78529 41.405 2.3154 41.8528 1.96549C42.3005 1.61558 42.8385 1.40004 43.404 1.34397C47.056 0.983975 49.156 0.983975 52.672 1.34397C53.3582 1.41492 53.9989 1.72018 54.4863 2.20833C54.9737 2.69648 55.278 3.3377 55.348 4.02397C55.712 7.53597 55.708 9.63997 55.348 13.288C55.2917 13.8532 55.0761 14.3908 54.7263 14.8383C54.3765 15.2859 53.9069 15.6249 53.372 15.816ZM46.88 21.848C47.3332 21.4085 47.9136 21.1232 48.5384 21.0327C49.1632 20.9422 49.8007 21.0511 50.36 21.344L54.248 23.384C54.751 23.6487 55.1685 24.051 55.4518 24.5439C55.7351 25.0368 55.8725 25.6 55.848 26.168L54.744 52.52C54.712 53.2939 54.3818 54.0255 53.8226 54.5616C53.2635 55.0976 52.5186 55.3966 51.744 55.396H43.856C43.5908 55.396 43.3364 55.2906 43.1489 55.1031C42.9613 54.9155 42.856 54.6612 42.856 54.396V26.172C42.8557 26.0377 42.8825 25.9047 42.9347 25.781C42.987 25.6573 43.0636 25.5454 43.16 25.452L46.88 21.848ZM37.856 54.396C37.856 54.6612 37.7506 54.9155 37.5631 55.1031C37.3755 55.2906 37.1212 55.396 36.856 55.396H21.856C21.5908 55.396 21.3364 55.2906 21.1489 55.1031C20.9613 54.9155 20.856 54.6612 20.856 54.396V31.14C20.856 31.06 20.916 30.996 20.996 31.004C21.648 31.036 22.288 31.284 22.816 31.744L29.396 37.52C29.5847 37.686 29.829 37.7749 30.0802 37.769C30.3315 37.7631 30.5713 37.6627 30.752 37.488L36.16 32.24C36.3012 32.1031 36.4795 32.0109 36.6728 31.9749C36.8661 31.9389 37.0658 31.9607 37.2467 32.0375C37.4277 32.1144 37.5821 32.2428 37.6904 32.4069C37.7988 32.571 37.8564 32.7634 37.856 32.96V54.396ZM14.14 36.544L1.69997 49.248C1.1494 49.8084 0.840622 50.5624 0.839974 51.348V52.396C0.839974 54.052 2.18397 55.396 3.83997 55.396H14.856C15.1212 55.396 15.3755 55.2906 15.5631 55.1031C15.7506 54.9155 15.856 54.6612 15.856 54.396V37.244C15.8564 37.045 15.7973 36.8503 15.6865 36.6851C15.5756 36.5198 15.418 36.3913 15.2337 36.3161C15.0494 36.241 14.8469 36.2225 14.652 36.2631C14.4572 36.3037 14.2789 36.4015 14.14 36.544Z" fill="#FE5D0A"/>
</svg>
