<svg width="14" height="13" viewBox="0 0 14 13" fill="none" xmlns="http://www.w3.org/2000/svg">
<path fill-rule="evenodd" clip-rule="evenodd" d="M7.1459 0.677002C6.38261 0.677002 5.71615 0.688648 5.13865 0.707606C3.02144 0.776669 1.31256 2.30363 1.31256 4.2994C1.31256 4.76713 1.36915 5.17094 1.43098 5.47373C1.53831 5.99806 1.98806 6.37019 2.54165 6.4379C3.25331 6.52538 4.64456 6.63534 7.1459 6.63534C9.64723 6.63534 11.0385 6.52538 11.7501 6.43817C12.3034 6.37019 12.7535 5.99806 12.8608 5.47373C12.9226 5.17094 12.9792 4.76686 12.9792 4.2994C12.9792 2.30363 11.2701 0.776669 9.15315 0.707606C8.57565 0.688648 7.90919 0.677002 7.1459 0.677002ZM10.3542 4.06242C10.3542 3.95467 10.4003 3.85134 10.4824 3.77516C10.5644 3.69897 10.6757 3.65617 10.7917 3.65617H10.9376C11.0536 3.65617 11.1649 3.69897 11.2469 3.77516C11.329 3.85134 11.3751 3.95467 11.3751 4.06242C11.3751 4.17016 11.329 4.27349 11.2469 4.34968C11.1649 4.42587 11.0536 4.46867 10.9376 4.46867H10.7917C10.6757 4.46867 10.5644 4.42587 10.4824 4.34968C10.4003 4.27349 10.3542 4.17016 10.3542 4.06242ZM9.04173 2.57284C8.9257 2.57284 8.81442 2.61564 8.73237 2.69182C8.65032 2.76801 8.60423 2.87134 8.60423 2.97909C8.60423 3.08683 8.65032 3.19016 8.73237 3.26635C8.81442 3.34253 8.9257 3.38534 9.04173 3.38534H9.18756C9.3036 3.38534 9.41488 3.34253 9.49692 3.26635C9.57897 3.19016 9.62506 3.08683 9.62506 2.97909C9.62506 2.87134 9.57897 2.76801 9.49692 2.69182C9.41488 2.61564 9.3036 2.57284 9.18756 2.57284H9.04173ZM9.3334 4.87492C9.3334 4.76717 9.2873 4.66384 9.20526 4.58766C9.12321 4.51147 9.01193 4.46867 8.8959 4.46867H8.75006C8.63403 4.46867 8.52275 4.51147 8.44071 4.58766C8.35866 4.66384 8.31256 4.76717 8.31256 4.87492C8.31256 4.98266 8.35866 5.08599 8.44071 5.16218C8.52275 5.23837 8.63403 5.28117 8.75006 5.28117H8.8959C9.01193 5.28117 9.12321 5.23837 9.20526 5.16218C9.2873 5.08599 9.3334 4.98266 9.3334 4.87492ZM11.5206 7.14586C10.7095 7.22819 9.34477 7.31242 7.1459 7.31242C4.94702 7.31242 3.58261 7.22846 2.77119 7.14586C2.08956 7.07625 1.46627 6.7499 1.07048 6.23938C1.04793 6.2475 1.02556 6.25626 1.0034 6.26565C0.783773 6.35909 0.565314 6.53269 0.484231 6.82113C0.454481 6.92784 0.437564 7.04619 0.437564 7.177C0.437564 7.30781 0.454481 7.42644 0.484231 7.53315C0.565314 7.82159 0.783773 7.99519 1.0034 8.08863C1.21194 8.17746 1.4409 8.20454 1.62581 8.20996C2.32202 8.23027 3.88273 8.26034 7.00006 8.26034C10.0042 8.26034 11.5626 8.23244 12.295 8.21213C12.5099 8.20644 12.7695 8.1715 12.9999 8.06669C13.2423 7.95592 13.4748 7.75361 13.5386 7.42888C13.5542 7.35034 13.5622 7.26638 13.5626 7.177C13.5631 7.04294 13.5541 7.00367 13.5386 6.92513C13.4861 6.65754 13.3187 6.47284 13.1256 6.35448C12.729 6.79892 12.1494 7.08167 11.5206 7.14586ZM7.00006 8.93742C3.87836 8.93742 2.30977 8.90709 1.60306 8.8865C1.37002 8.88 1.03256 8.84588 0.699481 8.70396L0.684898 8.69773L0.682564 8.69936C0.600023 8.75759 0.405773 8.92902 0.441939 9.2134C0.455082 9.32993 0.49604 9.44227 0.561833 9.54225C0.627626 9.64223 0.716598 9.72733 0.822273 9.79136C1.00661 9.90511 1.22069 9.95088 1.40211 9.97173C1.68881 10.0048 2.02627 9.98582 2.27565 9.97173C2.33418 9.9683 2.38687 9.96559 2.43373 9.96361C2.71781 9.95142 2.94269 9.97986 3.07102 10.0413C4.1394 10.5556 5.26611 10.5556 6.33448 10.0413C6.79794 9.81817 7.20277 9.81817 7.66623 10.0413C8.73461 10.5556 9.86131 10.5556 10.93 10.0413C11.0577 9.97959 11.2829 9.95142 11.567 9.96361C11.614 9.96559 11.6667 9.9683 11.7251 9.97173C11.9741 9.98582 12.3119 10.0048 12.5986 9.97173C12.78 9.95088 12.9941 9.90484 13.1781 9.79136C13.284 9.7275 13.3732 9.64245 13.439 9.54244C13.5049 9.44243 13.5458 9.33 13.5588 9.2134C13.59 8.96613 13.4447 8.80119 13.3561 8.72861C13.3373 8.71298 13.3174 8.69851 13.2966 8.68527C12.9445 8.84019 12.5808 8.88163 12.3166 8.88894C11.5746 8.90925 10.0086 8.93742 7.00006 8.93742ZM2.46756 10.6399C2.57169 10.6353 2.65511 10.6385 2.71431 10.6458C2.73512 10.6485 2.74931 10.6508 2.7569 10.6526C4.02944 11.2579 5.39823 11.2544 6.6699 10.6423C6.92277 10.5204 7.07765 10.5204 7.33052 10.6423C8.60219 11.2544 9.97098 11.2579 11.2438 10.6526C11.2512 10.6508 11.2653 10.6485 11.2861 10.6458C11.3453 10.6385 11.4287 10.6353 11.5331 10.6399L11.6486 10.6461C11.8881 10.6602 12.3241 10.6856 12.6884 10.6434C12.7862 10.6322 12.8832 10.6159 12.9789 10.5946C12.9574 11.6374 11.8884 12.2367 10.9492 12.2684C10.1256 12.2968 8.89211 12.3226 7.1459 12.3226C5.39969 12.3226 4.16652 12.2968 3.34256 12.2684C2.41856 12.237 1.36856 11.6563 1.3149 10.6439C1.67861 10.6856 2.1129 10.6602 2.35206 10.6461L2.46756 10.6399Z" fill="white"/>
</svg>
