<svg width="110" height="110" viewBox="0 0 110 110" fill="none" xmlns="http://www.w3.org/2000/svg">
<path fill-rule="evenodd" clip-rule="evenodd" d="M52.6288 20.9986C49.9704 18.4686 46.1525 17.2105 41.175 18.4319C39.9513 16.7633 38.3096 15.4465 36.4152 14.614C33.3535 13.2986 29.5104 13.3261 25.1769 15.8171C20.644 17.9324 18.46 21.0421 17.8573 24.3055C17.4494 26.5238 17.8046 28.6276 18.389 30.2867C14.5435 33.6509 13.3863 37.4917 13.9385 41.1103C14.4175 44.2407 16.1271 46.9151 17.8046 48.7301C17.5107 49.9921 17.481 51.3014 17.7175 52.5755C18.4279 52.0713 18.7648 51.8376 19.5371 51.5236C20.7975 51.0103 21.8288 50.9507 22.9746 50.9507C26.584 50.9507 28.6717 51.3701 32.1138 52.3257C34.0644 52.8469 35.9377 53.6236 37.6848 54.6357L38.3356 54.3561C39.1539 54.0014 40.0578 53.8931 40.9367 54.0444L48.9873 55.4355C48.677 53.7739 48.4984 52.0904 48.4533 50.4007C48.3667 46.3822 49.3965 42.4184 51.4283 38.9503C53.4602 35.4822 56.4143 32.6457 59.9621 30.7565C59.0352 29.7873 57.9115 29.0278 56.6667 28.529C56.1396 26.1159 54.9227 23.1826 52.6288 20.9986ZM30.1108 23.5584C30.3806 23.4249 30.6741 23.3458 30.9744 23.3257C31.2748 23.3056 31.5762 23.3449 31.8613 23.4413C32.1465 23.5377 32.4099 23.6893 32.6364 23.8875C32.863 24.0858 33.0483 24.3267 33.1817 24.5965L34.9944 28.2632L38.6908 24.3055C39.1107 23.8852 39.6774 23.6445 40.2714 23.6339C40.8653 23.6234 41.4402 23.8439 41.8747 24.249C42.3092 24.6541 42.5694 25.2121 42.6005 25.8054C42.6316 26.3986 42.4311 26.9807 42.0413 27.429L37.1669 32.6494L39.0071 36.3642L42.0573 33.5913C42.5098 33.2041 43.0952 33.0082 43.6896 33.0452C44.284 33.0821 44.8407 33.3491 45.2417 33.7894C45.6427 34.2297 45.8565 34.8088 45.8379 35.4041C45.8193 35.9994 45.5696 36.564 45.1419 36.9784L41.12 40.6336L43.54 45.524C43.8048 46.0684 43.8434 46.6953 43.6475 47.2681C43.4517 47.8408 43.0371 48.3128 42.4944 48.581C41.9518 48.8491 41.325 48.8917 40.7511 48.6994C40.1771 48.507 39.7026 48.0954 39.431 47.5544L36.9217 42.483L32.4208 43.3928C31.8384 43.4829 31.2436 43.3452 30.7601 43.0083C30.2765 42.6714 29.9414 42.1611 29.8243 41.5835C29.7072 41.0059 29.8171 40.4053 30.1312 39.9067C30.4453 39.408 30.9395 39.0495 31.511 38.9057L34.8202 38.2365L32.996 34.5538L26.0317 35.6011C25.7285 35.6595 25.4166 35.6561 25.1147 35.591C24.8129 35.5258 24.5273 35.4004 24.2751 35.2221C24.023 35.0439 23.8095 34.8165 23.6474 34.5536C23.4853 34.2908 23.378 33.9979 23.332 33.6926C23.2859 33.3872 23.3021 33.0757 23.3794 32.7768C23.4568 32.4778 23.5937 32.1976 23.7821 31.9529C23.9705 31.7082 24.2064 31.5041 24.4756 31.3529C24.7448 31.2016 25.0418 31.1064 25.3488 31.0728L30.8625 30.2432L29.0727 26.6246C28.8045 26.0803 28.7631 25.4517 28.9578 24.8769C29.1524 24.302 29.5671 23.8279 30.1108 23.5584Z" fill="white"/>
<path fill-rule="evenodd" clip-rule="evenodd" d="M55.3118 56.5927L54.1477 56.3659C53.7328 55.2349 53.4303 54.0659 53.2447 52.8756L53.2104 52.7381C52.9766 51.7825 52.8208 50.9415 52.807 50.309C52.7572 47.8562 53.226 45.4206 54.1829 43.1616C55.1399 40.9026 56.5632 38.8713 58.3597 37.2006C58.5003 37.0677 58.6432 36.9524 58.7883 36.8546C63.406 32.7296 69.8639 32.0123 74.8643 36.1052C74.807 30.4861 77.0872 24.9952 82.6102 21.8098L84.5466 25.1602C79.8693 27.8575 78.13 32.9061 78.9045 38.3029C89.5723 34.7967 97.875 44.8869 94.7583 56.5034C93.7943 60.0685 91.7564 63.2505 88.9214 65.6173L87.5235 65.1292C83.3825 63.6923 78.1689 61.9529 74.0027 60.8048C69.951 59.6865 64.7375 58.5292 60.5666 57.6584C58.8172 57.2927 57.0655 56.9375 55.3118 56.5927ZM86.0614 45.8013C86.6576 45.6856 87.2754 45.8112 87.779 46.1507C88.2826 46.4901 88.6308 47.0156 88.7473 47.6117C89.1666 49.6996 89.0029 51.8627 88.274 53.8637C87.5452 55.8647 86.2793 57.6264 84.6154 58.9554C84.1437 59.3383 83.5393 59.5182 82.935 59.4555C82.3308 59.3927 81.7762 59.0925 81.3933 58.6209C81.0104 58.1492 80.8305 57.5448 80.8933 56.9405C80.956 56.3363 81.2562 55.7817 81.7279 55.3988C82.7453 54.5914 83.5194 53.518 83.9644 52.2977C84.4093 51.0773 84.5077 49.7576 84.2487 48.4848C84.1343 47.8893 84.2606 47.2727 84.6 46.7702C84.9393 46.2676 85.464 45.92 86.0591 45.8036M23.4577 96.2454C30.3327 95.8627 34.586 93.9079 37.2077 91.0456C38.2504 92.4436 39.9989 93.2548 41.8918 92.9569C44.2636 92.5826 46.6303 92.1769 48.9914 91.74V81.0036H54.1018V90.7523C60.5643 89.4461 68.4247 87.6517 77.0895 85.2386V78.4529H82.2V83.7696C85.6902 82.7315 89.2858 81.5971 92.9502 80.3596C93.9055 80.0682 94.7419 79.4777 95.3363 78.675C95.9306 77.8723 96.2514 76.8999 96.2514 75.9012C96.2514 74.9024 95.9306 73.93 95.3363 73.1274C94.7419 72.3247 93.9055 71.7341 92.9502 71.4427C84.37 68.5524 75.6688 66.0345 66.871 63.8963V78.4529H61.7629V62.6931C53.3066 60.7727 46.3858 59.5536 41.8918 58.8431C41.0106 58.701 40.1073 58.8044 39.281 59.142C38.4547 59.4795 37.7373 60.0382 37.2077 60.7567C34.586 57.8921 30.3327 55.9373 23.4577 55.5546C23.124 55.5388 22.7906 55.5918 22.4782 55.7104C22.1659 55.8289 21.8813 56.0104 21.642 56.2436C21.4028 56.4768 21.2141 56.7567 21.0877 57.0659C20.9612 57.3751 20.8998 57.7071 20.907 58.0411C20.9666 62.1959 21.221 65.4959 22.0873 68.0694C19.28 69.1327 16.6331 71.2777 14.2131 74.5067C13.5943 75.3317 13.5943 76.4706 14.2131 77.2957C16.6125 80.4971 19.2387 82.6352 22.0185 83.7054C21.2806 86.2034 20.9873 89.4804 20.9116 93.7521C20.9034 94.0861 20.964 94.4181 21.0896 94.7277C21.2152 95.0373 21.4032 95.3177 21.6417 95.5515C21.8803 95.7853 22.1644 95.9676 22.4764 96.087C22.7884 96.2064 23.1216 96.2603 23.4554 96.2454M28.4948 71.1013L23.8954 72.8429C22.6212 73.3242 21.1912 74.2661 19.6787 75.9C21.1752 77.5179 22.5914 78.4575 23.8541 78.9434L28.2495 80.6369L26.9158 85.1492C26.5239 86.4784 26.2604 88.2979 26.1206 90.8509C31.0477 90.0946 33.1285 88.2682 34.2033 86.6067C35.7502 84.2165 36.2154 80.7286 36.2154 75.9C36.2154 71.0715 35.7502 67.5859 34.2033 65.1956C33.1262 63.5319 31.0408 61.7054 26.1068 60.9469C26.2375 63.4219 26.4964 65.159 26.9273 66.4446L28.4948 71.1013Z" fill="white"/>
</svg>
