<svg width="56" height="56" viewBox="0 0 56 56" fill="none" xmlns="http://www.w3.org/2000/svg">
<path d="M44.3334 51.3334H11.6667V46.6668H44.3334V51.3334ZM39.6667 23.3334C36.3534 23.3334 33.2734 25.1301 31.6167 28.0001H30.3334V16.3334H37.3334V11.6667H30.3334V4.66675H25.6667V11.6667H18.6667V16.3334H25.6667V28.0001H24.3834C21.8167 23.5434 16.1001 22.0034 11.6667 24.5934C9.51749 25.8228 7.94262 27.8533 7.2867 30.2409C6.63079 32.6284 6.94721 35.1786 8.16675 37.3334C9.89342 40.2267 12.9967 42.0001 16.3334 42.0001H39.6667C42.1421 42.0001 44.5161 41.0168 46.2664 39.2664C48.0167 37.5161 49.0001 35.1421 49.0001 32.6667C49.0001 30.1914 48.0167 27.8174 46.2664 26.0671C44.5161 24.3167 42.1421 23.3334 39.6667 23.3334Z" fill="#FE5D0A"/>
</svg>
