<svg width="53" height="42" viewBox="0 0 53 42" fill="none" xmlns="http://www.w3.org/2000/svg">
<path d="M47.25 0H5.25C2.3625 0 0.02625 2.3625 0.02625 5.25L0 36.75C0 39.6375 2.3625 42 5.25 42H47.25C50.1375 42 52.5 39.6375 52.5 36.75V5.25C52.5 2.3625 50.1375 0 47.25 0ZM46.2 11.1562L27.6412 22.7587C26.8012 23.2837 25.6987 23.2837 24.8587 22.7587L6.3 11.1562C6.03678 11.0085 5.80629 10.8089 5.62246 10.5694C5.43863 10.33 5.30529 10.0558 5.23051 9.76334C5.15573 9.4709 5.14107 9.16633 5.18741 8.86805C5.23375 8.56978 5.34013 8.28401 5.50011 8.02804C5.66009 7.77207 5.87035 7.55122 6.11815 7.37886C6.36596 7.2065 6.64616 7.08621 6.9418 7.02528C7.23744 6.96435 7.54237 6.96404 7.83813 7.02436C8.13389 7.08469 8.41434 7.2044 8.6625 7.37625L26.25 18.375L43.8375 7.37625C44.0856 7.2044 44.3661 7.08469 44.6619 7.02436C44.9576 6.96404 45.2625 6.96435 45.5582 7.02528C45.8538 7.08621 46.134 7.2065 46.3818 7.37886C46.6296 7.55122 46.8399 7.77207 46.9999 8.02804C47.1599 8.28401 47.2662 8.56978 47.3126 8.86805C47.3589 9.16633 47.3443 9.4709 47.2695 9.76334C47.1947 10.0558 47.0614 10.33 46.8775 10.5694C46.6937 10.8089 46.4632 11.0085 46.2 11.1562Z" fill="white"/>
</svg>
