<svg width="56" height="56" viewBox="0 0 56 56" fill="none" xmlns="http://www.w3.org/2000/svg">
<path d="M42.1402 53.6666H46.0135C47.9735 53.6666 49.5835 52.1499 49.8168 50.2366L53.6668 11.7833H42.0002V2.33325H37.4035V11.7833H25.8068L26.5068 17.2433C30.4968 18.3399 34.2302 20.3232 36.4702 22.5166C39.8302 25.8299 42.1402 29.2599 42.1402 34.8599V53.6666ZM2.3335 51.3333V48.9999H37.4035V51.3333C37.4035 52.5933 36.3535 53.6666 35.0002 53.6666H4.66683C3.3835 53.6666 2.3335 52.5933 2.3335 51.3333ZM37.4035 34.9999C37.4035 16.3333 2.3335 16.3333 2.3335 34.9999H37.4035ZM2.3335 39.6666H37.3335V44.3333H2.3335V39.6666Z" fill="white"/>
</svg>
