<svg width="57" height="57" viewBox="0 0 57 57" fill="none" xmlns="http://www.w3.org/2000/svg">
<path d="M28.5 0C12.7599 0 0 12.7599 0 28.5C0 44.2402 12.7599 57.0001 28.5 57.0001C44.2402 57.0001 57.0001 44.2402 57.0001 28.5C57.0001 12.7599 44.2402 0 28.5 0ZM18.2578 11.3207C18.845 11.2861 19.3758 11.637 19.7782 12.26L23.6746 19.6494C24.0849 20.525 23.8518 21.4626 23.2398 22.0882L21.4551 23.8729C21.3449 24.0239 21.2724 24.1939 21.2707 24.3808C21.9551 27.0301 24.0312 29.4739 25.863 31.1545C27.6947 32.835 29.6635 35.1103 32.2191 35.6494C32.535 35.7375 32.922 35.7691 33.148 35.559L35.2215 33.4472C35.9372 32.9047 36.9726 32.6418 37.7368 33.0854H37.7716L44.8026 37.2359C45.8347 37.8828 45.9416 39.1332 45.2027 39.8938L40.36 44.6983C39.6448 45.4317 38.6947 45.6783 37.7717 45.6794C33.6891 45.5571 29.8317 43.5533 26.6632 41.4942C21.4624 37.7106 16.6919 33.018 13.6969 27.3485C12.5482 24.9711 11.1989 21.9378 11.3277 19.2842C11.3392 18.286 11.6093 17.308 12.3123 16.6645L17.155 11.8218C17.5323 11.5008 17.9055 11.3415 18.2578 11.3207Z" fill="white"/>
</svg>
