<svg width="71" height="16" viewBox="0 0 71 16" fill="none" xmlns="http://www.w3.org/2000/svg">
<path d="M22.1722 2.4731C22.0422 1.99505 21.7885 1.55922 21.4364 1.20904C21.0843 0.858865 20.6461 0.606553 20.1655 0.477241C18.4059 0 11.3248 0 11.3248 0C11.3248 0 4.24334 0.0144828 2.48401 0.491724C2.00341 0.621057 1.56525 0.873378 1.21319 1.22356C0.861136 1.57373 0.60746 2.00955 0.477432 2.48759C-0.0547906 5.59724 -0.261273 10.3353 0.491993 13.3204C0.62202 13.7985 0.875697 14.2343 1.22776 14.5844C1.57981 14.9346 2.01797 15.1869 2.49857 15.3163C4.25804 15.7935 11.3393 15.7935 11.3393 15.7935C11.3393 15.7935 18.4206 15.7935 20.1801 15.3163C20.6607 15.1869 21.0988 14.9346 21.4509 14.5844C21.8029 14.2343 22.0566 13.7985 22.1867 13.3204C22.7479 10.2065 22.9209 5.47131 22.1721 2.47324" fill="#FF0000"/>
<path d="M9.0708 11.2811L14.9452 7.89686L9.0708 4.51245V11.2811Z" fill="white"/>
<path d="M68.1207 4.58472C68.8913 4.58472 69.4729 4.72927 69.88 5.00403C70.2872 5.27888 70.578 5.71281 70.7525 6.30583C70.927 6.89879 70.9996 7.70858 70.9996 8.74996V10.4422H67.2627V10.9628L67.321 12.3947C67.3645 12.7129 67.4373 12.9443 67.5535 13.0889C67.67 13.2335 67.8589 13.3058 68.1061 13.3058C68.4406 13.3058 68.6733 13.1758 68.7895 12.9155C68.9204 12.6551 68.9785 12.2211 68.9931 11.6282L70.927 11.7439C70.9415 11.8307 70.9416 11.9464 70.9416 12.0909C70.9416 13.0021 70.6943 13.682 70.1854 14.1302C69.6764 14.5785 68.9785 14.81 68.0624 14.81C66.9574 14.81 66.1868 14.4629 65.7505 13.7832C65.3144 13.1033 65.0817 12.033 65.0817 10.6013V8.8512C65.1311 6.39258 65.5658 4.5919 68.1207 4.58472ZM41.235 4.77272V12.0187C41.235 12.4526 41.2785 12.7708 41.3803 12.9588C41.5868 13.3609 42.1219 13.2581 42.4127 13.06C42.5806 12.9471 42.7159 12.7926 42.8053 12.6118V4.77258H45.03V14.6508H43.2851L43.0961 13.4359H43.0526C42.5727 14.3471 41.8601 14.8098 40.9151 14.8098C39.4604 14.8062 39.1044 13.7638 39.0197 12.705L39.0142 12.6304C39.0037 12.47 38.9975 12.3094 38.9957 12.1487V4.77272H41.235ZM52.7076 4.77272V12.0187C52.7076 12.4526 52.7511 12.7708 52.8529 12.9588C53.0595 13.3609 53.5945 13.2581 53.8853 13.06C54.0532 12.9471 54.1885 12.7926 54.2779 12.6118V4.77258H56.5026V14.6508H54.7577L54.5687 13.4359H54.5252C54.0454 14.3471 53.3327 14.8098 52.3877 14.8098C50.933 14.8062 50.577 13.7638 50.4923 12.705L50.4868 12.6304C50.4763 12.47 50.4701 12.3094 50.4683 12.1487V4.77272H52.7076ZM34.7788 4.58472C35.5059 4.58472 36.102 4.72927 36.5383 5.033C36.9744 5.33672 37.3089 5.79962 37.5125 6.43589C37.716 7.07231 37.8178 7.92555 37.8178 8.98141V10.4131C37.8178 11.469 37.716 12.3079 37.5125 12.9442C37.3089 13.5807 36.989 14.0435 36.5383 14.3472C36.0876 14.6364 35.4768 14.7955 34.7207 14.7955C33.9354 14.81 33.3247 14.6509 32.874 14.3617C32.4234 14.058 32.1033 13.5951 31.9144 12.9588C31.7253 12.3224 31.6381 11.4835 31.6381 10.4278V8.99576C31.6381 7.9399 31.7398 7.07217 31.958 6.43576C32.1761 5.785 32.5104 5.3221 32.9758 5.033C33.4411 4.74362 34.0372 4.58458 34.7788 4.58458M59.9924 0.621826V5.82845H60.007C60.2106 5.45245 60.4722 5.14872 60.8358 4.91727C61.1754 4.69032 61.5754 4.56947 61.9845 4.57024C62.5225 4.57024 62.9296 4.71479 63.235 4.98955C63.5404 5.27893 63.7585 5.72721 63.8893 6.34914C64.0161 6.95162 64.0882 7.78486 64.0927 8.83562L64.0928 8.9381V10.5C64.0928 11.9607 63.9038 13.0455 63.5548 13.7398C63.1915 14.434 62.6388 14.7811 61.8827 14.7811C61.4611 14.7811 61.083 14.6799 60.7341 14.4919C60.4255 14.3129 60.1697 14.0564 59.9922 13.7482L59.9633 13.6963H59.9198L59.6871 14.6364H57.8404V0.621964L59.9924 0.621826ZM51.0934 1.12803V2.92127H48.8833V14.6508H46.7023V2.92141H44.4775V1.12817L51.0934 1.12803ZM27.1158 1.12803L27.1172 1.13355C27.1384 1.22748 27.4324 2.52748 27.7558 4.0421L27.7813 4.1621L27.8199 4.34348L27.8457 4.46527L27.8586 4.52638L27.8843 4.64886L27.8972 4.71024L27.9229 4.83314L27.9603 5.01286C28.1787 6.06169 28.3872 7.11355 28.5118 7.86776H28.5701C28.6895 7.19121 28.863 6.32541 29.0479 5.44141L29.0965 5.21052C29.1208 5.09484 29.1453 4.97934 29.17 4.86403L29.208 4.68514C29.4592 3.51367 29.7179 2.3438 29.9841 1.17562L29.9883 1.157L29.9949 1.12803H32.2196L29.6459 10.2542V14.6364H27.4503V10.2686H27.4357L24.8911 1.1279L27.1158 1.12803ZM34.7352 6.11769C34.4298 6.11769 34.2262 6.27686 34.0955 6.60955C33.9647 6.94224 33.9065 7.44831 33.9065 8.15714V11.2377C33.9065 11.9609 33.9646 12.4959 34.0809 12.8142C34.1973 13.1324 34.4154 13.2915 34.7352 13.2915C35.0405 13.2915 35.2586 13.1324 35.3895 12.8142C35.5205 12.4959 35.5786 11.9609 35.5786 11.2377V8.157C35.5786 7.44831 35.5203 6.92762 35.3895 6.60941C35.2586 6.27686 35.0405 6.11769 34.7352 6.11769ZM60.385 6.40707C60.2078 6.56983 60.0817 6.77052 60.0067 7.02141L59.9924 7.07231V12.6839C60.1727 12.9876 60.4287 13.1901 60.8794 13.2046C61.112 13.2046 61.301 13.1178 61.4465 12.9443C61.5919 12.7708 61.6936 12.4815 61.7518 12.0764C61.8077 11.6878 61.8368 11.1524 61.839 10.4704V9.09714C61.839 8.31617 61.8099 7.72321 61.7663 7.30376C61.7081 6.88431 61.6356 6.58059 61.5047 6.40707C61.2516 6.04541 60.7049 6.04983 60.385 6.40707ZM68.0771 6.07438C67.8298 6.08881 67.6553 6.16114 67.5535 6.29134C67.4373 6.43589 67.3645 6.65286 67.321 6.97107C67.2781 7.28279 67.2634 8.37245 67.2627 8.41603V9.1261H68.8913V8.4999V8.5119C68.8903 8.73079 68.8857 8.38486 68.8758 7.96017L68.8744 7.90307C68.8652 7.52983 68.8519 7.11369 68.8332 6.97107C68.7895 6.63838 68.7167 6.40693 68.6005 6.27686C68.4841 6.14665 68.3097 6.07438 68.077 6.07438" fill="white"/>
</svg>
