<svg width="27" height="27" viewBox="0 0 27 27" fill="none" xmlns="http://www.w3.org/2000/svg">
<path d="M26.1058 13.2131C25.1134 10.6461 23.3906 8.42621 21.1502 6.8277C18.9099 5.22919 16.2503 4.32217 13.5001 4.21875C10.7499 4.32217 8.09033 5.22919 5.85002 6.8277C3.6097 8.42621 1.88689 10.6461 0.894504 13.2131C0.827483 13.3985 0.827483 13.6015 0.894504 13.7869C1.88689 16.3539 3.6097 18.5738 5.85002 20.1723C8.09033 21.7708 10.7499 22.6778 13.5001 22.7812C16.2503 22.6778 18.9099 21.7708 21.1502 20.1723C23.3906 18.5738 25.1134 16.3539 26.1058 13.7869C26.1728 13.6015 26.1728 13.3985 26.1058 13.2131ZM13.5001 21.0938C9.02825 21.0938 4.30325 17.7778 2.59044 13.5C4.30325 9.22219 9.02825 5.90625 13.5001 5.90625C17.972 5.90625 22.697 9.22219 24.4098 13.5C22.697 17.7778 17.972 21.0938 13.5001 21.0938Z" fill="white"/>
<path d="M13.5 8.4375C12.4987 8.4375 11.52 8.73441 10.6874 9.29069C9.8549 9.84696 9.20603 10.6376 8.82286 11.5627C8.43969 12.4877 8.33944 13.5056 8.53478 14.4876C8.73011 15.4697 9.21227 16.3717 9.92027 17.0797C10.6283 17.7877 11.5303 18.2699 12.5124 18.4652C13.4944 18.6606 14.5123 18.5603 15.4373 18.1771C16.3624 17.794 17.153 17.1451 17.7093 16.3126C18.2656 15.4801 18.5625 14.5013 18.5625 13.5C18.5625 12.1573 18.0291 10.8697 17.0797 9.92027C16.1303 8.97087 14.8427 8.4375 13.5 8.4375ZM13.5 16.875C12.8325 16.875 12.18 16.6771 11.625 16.3062C11.0699 15.9354 10.6374 15.4083 10.3819 14.7916C10.1265 14.1749 10.0596 13.4963 10.1899 12.8416C10.3201 12.1869 10.6415 11.5855 11.1135 11.1135C11.5855 10.6415 12.1869 10.3201 12.8416 10.1898C13.4963 10.0596 14.1749 10.1265 14.7916 10.3819C15.4083 10.6374 15.9354 11.0699 16.3062 11.625C16.6771 12.18 16.875 12.8325 16.875 13.5C16.875 14.3951 16.5194 15.2535 15.8865 15.8865C15.2536 16.5194 14.3951 16.875 13.5 16.875Z" fill="white"/>
</svg>
