<svg width="63" height="56" viewBox="0 0 63 56" fill="none" xmlns="http://www.w3.org/2000/svg">
<g clip-path="url(#clip0_1_564)">
<path d="M33.1187 34.125C36.6296 29.739 44.6249 19.0969 44.6249 13.125C44.6249 5.87343 38.7515 0 31.5 0C24.2484 0 18.375 5.87343 18.375 13.125C18.375 19.0969 26.3703 29.739 29.8812 34.125C30.7234 35.175 32.2875 35.175 33.1187 34.125ZM45.4999 55.0156L61.3484 48.6718C62.3437 48.2781 62.9999 47.3046 62.9999 46.2328V16.625C62.9999 14.7656 61.1296 13.4969 59.4015 14.1859L46.714 19.2609C46.6593 19.3922 46.6046 19.5344 46.5499 19.6656C46.2328 20.4094 45.8828 21.164 45.4999 21.9187V55.0156ZM1.65156 20.4859C0.656249 20.8906 0 21.8531 0 22.925V52.5437C0 54.4031 1.87031 55.6718 3.59843 54.9827L17.5 49.4156V21.9187C17.1172 21.164 16.7672 20.4094 16.45 19.6656C15.8375 18.2219 15.3125 16.6687 15.05 15.1265L1.64062 20.4859H1.65156ZM41.9999 27.8906C39.7578 31.314 37.3734 34.4093 35.8531 36.3125C33.6109 39.1125 29.389 39.1125 27.1468 36.3125C25.6265 34.4093 23.2422 31.314 21 27.8906V49.1531L41.9999 55.1577V27.8906Z" fill="white"/>
</g>
<defs>
<clipPath id="clip0_1_564">
<rect width="62.9452" height="55.9513" fill="white" transform="scale(1.00087)"/>
</clipPath>
</defs>
</svg>
